<svg xmlns="http://www.w3.org/2000/svg" viewBox="0 0 64 64">
  <defs>
    <radialGradient id="btcBg" cx="50%" cy="35%" r="70%">
      <stop offset="0%" stop-color="#FFC76A"/>
      <stop offset="100%" stop-color="#F7931A"/>
    </radialGradient>
    <linearGradient id="btcHighlight" x1="50%" y1="0%" x2="50%" y2="100%">
      <stop offset="0%" stop-color="#FFFFFF" stop-opacity="0.4"/>
      <stop offset="100%" stop-color="#FFFFFF" stop-opacity="0"/>
    </linearGradient>
  </defs>
  <circle cx="32" cy="32" r="30" fill="url(#btcBg)"/>
  <circle cx="32" cy="32" r="28" fill="none" stroke="#FFFFFF" stroke-opacity="0.25" stroke-width="2"/>
  <path fill="url(#btcHighlight)" d="M32 6a26 26 0 1026 26A26 26 0 0032 6z"/>
  <g fill="#FFFFFF">
    <path d="M38.3 32.9c2.2-.9 3.6-2.9 3.6-5.5 0-4.3-3.3-6.9-8.8-6.9h-1.3v-4.3H28V20h-3.3v3.4H28v15.2h-3.3V42H28v4.2h3.8V42h2c5.8 0 9.2-2.9 9.2-7.4 0-2.9-1.4-5-3.7-6.2zm-5-8.5c2.6 0 4.2 1.2 4.2 3.1s-1.6 3.1-4.2 3.1h-2.1v-6.2zm.4 13.3H33v-6.3h2.3c3 0 4.7 1.3 4.7 3.4 0 2.2-1.6 2.9-4.3 2.9z"/>
  </g>
</svg>
