<svg xmlns="http://www.w3.org/2000/svg" viewBox="0 0 64 64">
  <defs>
    <linearGradient id="ethBg" x1="0%" y1="0%" x2="100%" y2="100%">
      <stop offset="0%" stop-color="#141A2C"/>
      <stop offset="100%" stop-color="#090B16"/>
    </linearGradient>
    <linearGradient id="ethTop" x1="50%" y1="0%" x2="50%" y2="100%">
      <stop offset="0%" stop-color="#8A92B2"/>
      <stop offset="100%" stop-color="#62688F"/>
    </linearGradient>
    <linearGradient id="ethMiddle" x1="50%" y1="0%" x2="50%" y2="100%">
      <stop offset="0%" stop-color="#3E4257"/>
      <stop offset="100%" stop-color="#1B1D2A"/>
    </linearGradient>
    <linearGradient id="ethBottom" x1="50%" y1="0%" x2="50%" y2="100%">
      <stop offset="0%" stop-color="#303244"/>
      <stop offset="100%" stop-color="#0D0E16"/>
    </linearGradient>
    <linearGradient id="ethHighlight" x1="50%" y1="0%" x2="50%" y2="100%">
      <stop offset="0%" stop-color="#FFFFFF" stop-opacity="0.35"/>
      <stop offset="100%" stop-color="#FFFFFF" stop-opacity="0"/>
    </linearGradient>
  </defs>
  <rect width="64" height="64" rx="16" fill="url(#ethBg)"/>
  <g transform="translate(0 -2)">
    <polygon points="32 12 18 34 32 27.5 46 34" fill="url(#ethTop)"/>
    <polygon points="18 34 32 42 46 34 32 27.5" fill="url(#ethMiddle)"/>
    <polygon points="18 36 32 58 46 36 32 44" fill="url(#ethBottom)"/>
    <polygon points="32 12 18 34 32 27.5" fill="url(#ethHighlight)"/>
    <polygon points="32 12 46 34 32 27.5" fill="url(#ethHighlight)" opacity="0.35"/>
  </g>
</svg>
