codex/identify-tasks-for-pools-and-swaps-setup
<svg width="128" height="128" viewBox="0 0 128 128" fill="none" xmlns="http://www.w3.org/2000/svg">

<svg xmlns="http://www.w3.org/2000/svg" viewBox="0 0 64 64">
master
  <defs>
    <linearGradient id="ktaGradient" x1="20%" y1="10%" x2="80%" y2="90%">
      <stop offset="0%" stop-color="#1F2937"/>
      <stop offset="100%" stop-color="#111827"/>
    </linearGradient>
  </defs>
codex/identify-tasks-for-pools-and-swaps-setup
  <circle cx="64" cy="64" r="60" fill="url(#ktaGradient)" />
  <path
    d="M36.5 52.2c-1.4 3.1-2.1 6.5-2.1 10 0 14.3 13.2 31.8 29.6 31.8s29.6-17.5 29.6-31.8c0-3.5-.7-6.9-2.1-10l4.4-14-13.3 6.4c-5-3.4-11.2-5.5-18.6-5.5-7.4 0-13.6 2.1-18.6 5.5l-13.3-6.4 4.4 14Z"
    stroke="#F9FAFB"
    stroke-width="4"
    stroke-linecap="round"
    stroke-linejoin="round"
    fill="none"
  />
  <path
    d="M48 66c3.5-2.4 7.5-3.7 12-3.7 4.5 0 8.5 1.3 12 3.7"
    stroke="#F9FAFB"
    stroke-width="4"
    stroke-linecap="round"
    stroke-linejoin="round"
    fill="none"
  />
  <path
    d="M55.6 76.5c0 2.6-2 4.6-4.6 4.6-2.6 0-4.6-2-4.6-4.6 0-2.6 2-4.6 4.6-4.6 2.6 0 4.6 2 4.6 4.6ZM81.6 76.5c0 2.6-2 4.6-4.6 4.6-2.6 0-4.6-2-4.6-4.6 0-2.6 2-4.6 4.6-4.6 2.6 0 4.6 2 4.6 4.6Z"
    fill="#F9FAFB"
  />
  <path
    d="M64 92c4.2 0 8.1-1.6 10.8-4.2"
    stroke="#F9FAFB"
    stroke-width="4"
    stroke-linecap="round"
    stroke-linejoin="round"
    fill="none"
  />

  <circle cx="32" cy="32" r="30" fill="url(#ktaGradient)"/>
  <circle cx="32" cy="32" r="28" fill="none" stroke="#FFFFFF" stroke-opacity="0.18" stroke-width="2"/>
  <g fill="none" stroke="#F9FAFB" stroke-linecap="round" stroke-linejoin="round" stroke-width="4">
    <path d="M20 16v32"/>
    <path d="M20 32l24-16"/>
    <path d="M20 32l24 16"/>
  </g>
master
</svg>
