<svg xmlns="http://www.w3.org/2000/svg" viewBox="0 0 64 64">
  <defs>
    <linearGradient id="solBg" x1="0%" y1="0%" x2="100%" y2="100%">
      <stop offset="0%" stop-color="#0E1428"/>
      <stop offset="100%" stop-color="#02040A"/>
    </linearGradient>
    <linearGradient id="solStripe" x1="0%" y1="0%" x2="100%" y2="0%">
      <stop offset="0%" stop-color="#14F195"/>
      <stop offset="50%" stop-color="#00FFA3"/>
      <stop offset="100%" stop-color="#8A63D2"/>
    </linearGradient>
    <linearGradient id="solHighlight" x1="0%" y1="0%" x2="0%" y2="100%">
      <stop offset="0%" stop-color="#FFFFFF" stop-opacity="0.35"/>
      <stop offset="100%" stop-color="#FFFFFF" stop-opacity="0"/>
    </linearGradient>
  </defs>
  <rect width="64" height="64" rx="16" fill="url(#solBg)"/>
  <g fill="url(#solStripe)" transform="translate(8 12)">
    <path d="M44 0H8l6-6h36l-6 6z"/>
    <path d="M48 18H12l-6 6h36l6-6z"/>
    <path d="M44 36H8l6-6h36l-6 6z"/>
  </g>
  <g fill="url(#solHighlight)" transform="translate(8 12)">
    <path d="M44 0H8l6-6h36l-6 6z"/>
    <path d="M48 18H12l-6 6h36l6-6z"/>
    <path d="M44 36H8l6-6h36l-6 6z"/>
  </g>
</svg>
