<svg xmlns="http://www.w3.org/2000/svg" viewBox="0 0 64 64">
  <circle cx="32" cy="32" r="32" fill="#2775CA"/>
  <circle cx="32" cy="32" r="26" fill="none" stroke="#ffffff" stroke-width="4"/>
  <path fill="#ffffff" d="M28.9 18.5v3.8c-5 1.2-8.4 5.3-8.4 9.7 0 4.4 3.3 8.5 8.4 9.7v3.8h4.2v-3.3c3.5-.3 6.6-1.8 9.1-4.3l-3-3a9.7 9.7 0 01-6 2.7v-7.5c5.5-1.4 8.5-4 8.5-8.4 0-4.4-3.6-7.6-8.5-8.8v-3.4h-4.2zm0 8.1c0-1.6 1.4-2.9 3.1-2.9s3.1 1.3 3.1 2.9c0 1.5-1.2 2.5-3.1 3.2v-6.1zm0 9.3v6.4c-1.9-.7-3.1-2-3.1-3.6 0-1.7 1.2-2.7 3.1-3.3z"/>
</svg>
